<svg xmlns="http://www.w3.org/2000/svg" viewBox="0 0 512 512" width="512" height="512">
  <rect width="512" height="512" rx="64" fill="#1e293b"/>
  <g fill="#60a5fa">
    <circle cx="256" cy="256" r="40"/>
    <path d="M256 120c-75.1 0-136 60.9-136 136s60.9 136 136 136 136-60.9 136-136-60.9-136-136-136zm0 232c-53 0-96-43-96-96s43-96 96-96 96 43 96 96-43 96-96 96z"/>
    <circle cx="256" cy="96" r="24"/>
    <circle cx="256" cy="416" r="24"/>
    <circle cx="96" cy="256" r="24"/>
    <circle cx="416" cy="256" r="24"/>
    <circle cx="362" cy="150" r="24"/>
    <circle cx="150" cy="150" r="24"/>
    <circle cx="150" cy="362" r="24"/>
    <circle cx="362" cy="362" r="24"/>
  </g>
</svg>
